<svg version="1.2" baseProfile="tiny" xmlns="http://www.w3.org/2000/svg" viewBox="0 0 27 27"><path fill="#B4B3B3" d="M22.9 26.9H3.1c-1.8 0-3.3-1.5-3.3-3.3V3.9C-.2 2.1 1.3.6 3.1.6h19.8c1.8 0 3.3 1.5 3.3 3.3v19.8c0 1.7-1.5 3.2-3.3 3.2zM3.1 1.5C1.8 1.5.8 2.5.8 3.8v19.8c0 1.3 1 2.3 2.3 2.3h19.8c1.3 0 2.3-1 2.3-2.3V3.9c0-1.3-1-2.3-2.3-2.3H3.1z"/><path d="M10.9 12.5H6.4c-.5 0-.8-.4-.8-.8V6.3c0-.5.4-.8.8-.8h4.5c.5 0 .8.4.8.8v5.3c0 .5-.3.9-.8.9zm8.7 0h-4.5c-.5 0-.8-.4-.8-.8V6.3c0-.5.4-.8.8-.8h4.5c.5 0 .8.4.8.8v5.3c0 .5-.4.9-.8.9zM10.9 22H6.4c-.5 0-.8-.4-.8-.8v-5.3c0-.5.4-.8.8-.8h4.5c.5 0 .8.4.8.8v5.3c0 .4-.3.8-.8.8zm8.7 0h-4.5c-.5 0-.8-.4-.8-.8v-5.3c0-.5.4-.8.8-.8h4.5c.5 0 .8.4.8.8v5.3c0 .4-.4.8-.8.8z" fill="#B4B3B3"/></svg>