<svg version="1.2" baseProfile="tiny" xmlns="http://www.w3.org/2000/svg" viewBox="0 0 30 39"><path fill="#FFF" d="M22.4 0h-13C8 0 6.9 1 6.9 2.4c-1.3 0-3.2 1-3.3 2.3-.6 0-1.4.3-2 .7C.9 5.9.5 6.5.5 7.2v29.3C.5 37.9 1.6 39 3 39h19.3c1.4 0 2.4-1.9 2.5-3.3 2.2-.9 2.5-2.5 2.5-3.7 1.2-.1 2.2-1.1 2.2-2.5V8.3L22.4 0zM8.3 2.5c0-.5.4-1.1 1.1-1.1H21v5.8c0 1.4 1.1 2.5 2.5 2.5h4.6v19.9c0 .5-.4 1.1-1.1 1.1H9.3c-.5 0-1.1-.4-1.1-1.1V2.5zm15.2 5.7c-.5 0-1.1-.5-1.1-1.1v-5l5.2 6h-4.1zM5 4.8c0-.5 1.2-1 1.9-1.1v25.8C6.9 30.9 8 32 9.4 32H26v.1c0 .7.1 1.8-1.3 2.2H6.1c-.6.1-1.1-.3-1.1-1V4.8zm17.3 32.8H3c-.5 0-1.1-.4-1.1-1.1V7.2c0-.5 1-1 1.7-1.1v27.2c0 1.4 1.1 2.5 2.5 2.5h17.3c-.1.6-.5 1.8-1.1 1.8z"/></svg>