<svg version="1.2" baseProfile="tiny" xmlns="http://www.w3.org/2000/svg" viewBox="0 0 27 27"><path fill="#B4B3B3" d="M23.4 26.4H3.6c-1.8 0-3.3-1.5-3.3-3.3V3.3C.3 1.5 1.8 0 3.6 0h19.8c1.8 0 3.3 1.5 3.3 3.3v19.8c.1 1.8-1.4 3.3-3.3 3.3zM3.6 1C2.4 1 1.3 2 1.3 3.3v19.8c0 1.3 1 2.3 2.3 2.3h19.8c1.3 0 2.3-1 2.3-2.3V3.3c0-1.3-1-2.3-2.3-2.3H3.6z"/><path fill="#B4B3B3" d="M21.9 8.6H5.2c-.4 0-.8-.3-.8-.8v-.6c0-.4.3-.8.8-.8h16.6c.4 0 .8.3.8.8v.7c0 .4-.3.7-.7.7zm0 5.7H5.2c-.4 0-.8-.3-.8-.8v-.7c0-.4.3-.8.8-.8h16.6c.4 0 .8.3.8.8v.7c0 .5-.3.8-.7.8zm0 5.7H5.2c-.4 0-.8-.3-.8-.8v-.7c0-.4.3-.8.8-.8h16.6c.4 0 .8.3.8.8v.7c0 .4-.3.8-.7.8z"/></svg>