<svg version="1.2" baseProfile="tiny" xmlns="http://www.w3.org/2000/svg" viewBox="166.6 412.3 16 18"><path fill="#BDD5F6" d="M174 429.7c0 .3.2.5.5.5h4.7c1.8 0 3.3-1.5 3.3-3.3v-11.2c0-1.8-1.5-3.3-3.3-3.3h-4.7c-.3 0-.5.2-.5.5s.2.5.5.5h4.7c1.3 0 2.3 1 2.3 2.3v11.2c0 1.3-1 2.3-2.3 2.3h-4.7c-.3-.1-.5.2-.5.5z"/><path fill="#BDD5F6" d="M179.1 420.9l-3.3-3.3c-.2-.2-.5-.2-.7 0-.2.2-.2.5 0 .7l2.4 2.4h-10.4c-.3 0-.5.2-.5.5s.2.5.5.5h10.4l-2.4 2.4c-.2.2-.2.5 0 .7.1.1.2.2.4.2s.3 0 .4-.2l3.3-3.3c.1-.1.1-.4-.1-.6z"/></svg>