<?xml version="1.0" encoding="utf-8"?>
<!-- Generator: Adobe Illustrator 19.0.0, SVG Export Plug-In . SVG Version: 6.00 Build 0)  -->
<svg version="1.2" baseProfile="tiny" id="Слой_1"
	 xmlns="http://www.w3.org/2000/svg" xmlns:xlink="http://www.w3.org/1999/xlink" x="0px" y="0px" viewBox="0 0 27 27"
	 xml:space="preserve">
<g>
	<g>
		<path fill="#B4B3B3" d="M22.9,26.9H3.1c-1.8,0-3.3-1.5-3.3-3.3V3.9c0-1.8,1.5-3.3,3.3-3.3h19.8c1.8,0,3.3,1.5,3.3,3.3v19.8
			C26.2,25.4,24.7,26.9,22.9,26.9z M3.1,1.5c-1.3,0-2.3,1-2.3,2.3v19.8c0,1.3,1,2.3,2.3,2.3h19.8c1.3,0,2.3-1,2.3-2.3V3.9
			c0-1.3-1-2.3-2.3-2.3H3.1z"/>
	</g>
	<g>
		<path fill="#B4B3B3" d="M10.9,12.5H6.4c-0.5,0-0.8-0.4-0.8-0.8V6.3c0-0.5,0.4-0.8,0.8-0.8h4.5c0.5,0,0.8,0.4,0.8,0.8v5.3
			C11.7,12.1,11.4,12.5,10.9,12.5z"/>
		<path fill="#B4B3B3" d="M19.6,12.5h-4.5c-0.5,0-0.8-0.4-0.8-0.8V6.3c0-0.5,0.4-0.8,0.8-0.8h4.5c0.5,0,0.8,0.4,0.8,0.8v5.3
			C20.4,12.1,20,12.5,19.6,12.5z"/>
		<path fill="#B4B3B3" d="M10.9,22H6.4c-0.5,0-0.8-0.4-0.8-0.8v-5.3c0-0.5,0.4-0.8,0.8-0.8h4.5c0.5,0,0.8,0.4,0.8,0.8v5.3
			C11.7,21.6,11.4,22,10.9,22z"/>
		<path fill="#B4B3B3" d="M19.6,22h-4.5c-0.5,0-0.8-0.4-0.8-0.8v-5.3c0-0.5,0.4-0.8,0.8-0.8h4.5c0.5,0,0.8,0.4,0.8,0.8v5.3
			C20.4,21.6,20,22,19.6,22z"/>
	</g>
</g>
</svg>
