<?xml version="1.0" encoding="utf-8"?>
<!-- Generator: Adobe Illustrator 19.0.0, SVG Export Plug-In . SVG Version: 6.00 Build 0)  -->
<svg version="1.2" baseProfile="tiny" id="Слой_1"
	 xmlns="http://www.w3.org/2000/svg" xmlns:xlink="http://www.w3.org/1999/xlink" x="0px" y="0px" viewBox="0 6.3 12 9.3"
	 xml:space="preserve">
<path fill="#0051A3" d="M0.1,11.5C0,11.4,0,11.2,0,11.1c0-0.1,0-0.2,0.1-0.3l0.6-0.6C1,10,1.2,10,1.4,10.2l0,0L4,12.9
	c0.1,0.1,0.2,0.1,0.3,0l6.2-6.4h0l0,0c0.2-0.2,0.5-0.2,0.6,0l0.6,0.6c0.2,0.2,0.2,0.5,0,0.6l0,0l-7.4,7.7c-0.1,0.1-0.2,0.1-0.3,0.1
	s-0.2,0-0.3-0.1l-3.6-3.9L0.1,11.5z"/>
</svg>
