<?xml version="1.0" encoding="utf-8"?>
<!-- Generator: Adobe Illustrator 19.0.0, SVG Export Plug-In . SVG Version: 6.00 Build 0)  -->
<svg version="1.2" baseProfile="tiny" id="Слой_1"
	 xmlns="http://www.w3.org/2000/svg" xmlns:xlink="http://www.w3.org/1999/xlink" x="0px" y="0px" viewBox="0 0 30 39"
	 xml:space="preserve">
<path id="XMLID_2_" fill="#FFFFFF" d="M22.4,0h-13C8,0,6.9,1,6.9,2.4C5.6,2.4,3.7,3.4,3.6,4.7c-0.6,0-1.4,0.3-2,0.7
	C0.9,5.9,0.5,6.5,0.5,7.2v29.3C0.5,37.9,1.6,39,3,39h19.3c1.4,0,2.4-1.9,2.5-3.3c2.2-0.9,2.5-2.5,2.5-3.7c1.2-0.1,2.2-1.1,2.2-2.5
	V8.3L22.4,0z M8.3,2.5c0-0.5,0.4-1.1,1.1-1.1H21v5.8c0,1.4,1.1,2.5,2.5,2.5h4.6v19.9c0,0.5-0.4,1.1-1.1,1.1H9.3
	c-0.5,0-1.1-0.4-1.1-1.1V2.5z M23.5,8.2c-0.5,0-1.1-0.5-1.1-1.1v-5l5.2,6H23.5z M5,4.8c0-0.5,1.2-1,1.9-1.1v25.8
	c0,1.4,1.1,2.5,2.5,2.5h16.6c0,0,0,0.1,0,0.1c0,0.7,0.1,1.8-1.3,2.2H6.1C5.5,34.4,5,34,5,33.3V4.8z M22.3,37.6H3
	c-0.5,0-1.1-0.4-1.1-1.1V7.2c0-0.5,1-1,1.7-1.1v27.2c0,1.4,1.1,2.5,2.5,2.5h17.3C23.3,36.4,22.9,37.6,22.3,37.6z"/>
</svg>
