<?xml version="1.0" encoding="utf-8"?>
<!-- Generator: Adobe Illustrator 19.0.0, SVG Export Plug-In . SVG Version: 6.00 Build 0)  -->
<svg version="1.2" baseProfile="tiny" id="Слой_1"
	 xmlns="http://www.w3.org/2000/svg" xmlns:xlink="http://www.w3.org/1999/xlink" x="0px" y="0px" viewBox="0 0 25 25"
	 xml:space="preserve">
<g id="XMLID_2_">
	<path id="XMLID_6_" fill="#076CA4" d="M0.7,13.6c3.9-0.7,8.6-1.4,13.4-3.5l6.2,5.3c-3.5,4-7.8,7.3-13.1,9.7L0.7,13.6"/>
	<path id="XMLID_5_" fill="#599A43" d="M13.8,8.4c1.8-1,3.7-2.1,5.4-3.5L24,7.5c-1.1,2.1-2.3,4.1-3.8,6L13.8,8.4"/>
	<path id="XMLID_4_" fill="#FFCE0C" d="M19.3,3.7c0.6-0.5,1.1-1,1.7-1.6l3.4,1.7C24,4.5,23.7,5.2,23.4,6L19.3,3.7"/>
	<path id="XMLID_3_" fill="#D63928" d="M20.7,1.1c0.1-0.1,0.9-1,1-1.1l2.6,0.8c-0.1,0.2-0.5,1.5-0.6,1.8L20.7,1.1"/>
</g>
</svg>
