<?xml version="1.0" encoding="utf-8"?>
<!-- Generator: Adobe Illustrator 19.0.0, SVG Export Plug-In . SVG Version: 6.00 Build 0)  -->
<svg version="1.2" baseProfile="tiny" id="Слой_1"
	 xmlns="http://www.w3.org/2000/svg" xmlns:xlink="http://www.w3.org/1999/xlink" x="0px" y="0px" viewBox="0 0 27 27"
	 xml:space="preserve">
<g>
	<g>
		<path fill="#B4B3B3" d="M23.4,26.4H3.6c-1.8,0-3.3-1.5-3.3-3.3V3.3C0.3,1.5,1.8,0,3.6,0h19.8c1.8,0,3.3,1.5,3.3,3.3v19.8
			C26.8,24.9,25.3,26.4,23.4,26.4z M3.6,1C2.4,1,1.3,2,1.3,3.3v19.8c0,1.3,1,2.3,2.3,2.3h19.8c1.3,0,2.3-1,2.3-2.3V3.3
			c0-1.3-1-2.3-2.3-2.3H3.6z"/>
	</g>
	<g>
		<g>
			<path fill="#B4B3B3" d="M21.9,8.6H5.2c-0.4,0-0.8-0.3-0.8-0.8V7.2c0-0.4,0.3-0.8,0.8-0.8h16.6c0.4,0,0.8,0.3,0.8,0.8v0.7
				C22.6,8.3,22.3,8.6,21.9,8.6z"/>
		</g>
		<g>
			<path fill="#B4B3B3" d="M21.9,14.3H5.2c-0.4,0-0.8-0.3-0.8-0.8v-0.7c0-0.4,0.3-0.8,0.8-0.8h16.6c0.4,0,0.8,0.3,0.8,0.8v0.7
				C22.6,14,22.3,14.3,21.9,14.3z"/>
		</g>
		<g>
			<path fill="#B4B3B3" d="M21.9,20H5.2c-0.4,0-0.8-0.3-0.8-0.8v-0.7c0-0.4,0.3-0.8,0.8-0.8h16.6c0.4,0,0.8,0.3,0.8,0.8v0.7
				C22.6,19.6,22.3,20,21.9,20z"/>
		</g>
	</g>
</g>
</svg>
