<?xml version="1.0" encoding="utf-8"?>
<!-- Generator: Adobe Illustrator 19.0.0, SVG Export Plug-In . SVG Version: 6.00 Build 0)  -->
<svg version="1.2" baseProfile="tiny" id="Capa_1" xmlns="http://www.w3.org/2000/svg" xmlns:xlink="http://www.w3.org/1999/xlink"
	 x="0px" y="0px" viewBox="166.6 412.3 16 18" xml:space="preserve">
<path fill="#BDD5F6" d="M174,429.7c0,0.3,0.2,0.5,0.5,0.5h4.7c1.8,0,3.3-1.5,3.3-3.3v-11.2c0-1.8-1.5-3.3-3.3-3.3h-4.7
	c-0.3,0-0.5,0.2-0.5,0.5s0.2,0.5,0.5,0.5h4.7c1.3,0,2.3,1,2.3,2.3v11.2c0,1.3-1,2.3-2.3,2.3h-4.7C174.2,429.1,174,429.4,174,429.7z"
	/>
<path fill="#BDD5F6" d="M179.1,420.9l-3.3-3.3c-0.2-0.2-0.5-0.2-0.7,0c-0.2,0.2-0.2,0.5,0,0.7l2.4,2.4h-10.4c-0.3,0-0.5,0.2-0.5,0.5
	s0.2,0.5,0.5,0.5h10.4l-2.4,2.4c-0.2,0.2-0.2,0.5,0,0.7c0.1,0.1,0.2,0.2,0.4,0.2s0.3,0,0.4-0.2l3.3-3.3
	C179.3,421.4,179.3,421.1,179.1,420.9z"/>
</svg>
