<?xml version="1.0" encoding="utf-8"?>
<!-- Generator: Adobe Illustrator 19.0.0, SVG Export Plug-In . SVG Version: 6.00 Build 0)  -->
<svg version="1.2" baseProfile="tiny" id="Capa_1" xmlns="http://www.w3.org/2000/svg" xmlns:xlink="http://www.w3.org/1999/xlink"
	 x="0px" y="0px" viewBox="166.6 414.2 16 15.9" xml:space="preserve">
<g>
	<path fill="#BDD5F6" d="M178,419.5c0-0.6,0.9-4.8-3.4-4.8c-4.3,0-3.4,4.2-3.4,4.8c0.2,1.5,0.4,2.2,0.4,2.2c0.3,1.5,1.4,2.7,1.4,2.7
		s0,1.1-0.4,1.1c-1.3,0.2-6,2.3-6,4.6h8h8c0-2.3-4.8-4.4-6-4.6c-0.4-0.1-0.4-1.1-0.4-1.1s1.2-1.2,1.4-2.7
		C177.6,421.7,177.9,420.4,178,419.5z"/>
</g>
</svg>
