<?xml version="1.0" encoding="utf-8"?>
<!-- Generator: Adobe Illustrator 19.0.0, SVG Export Plug-In . SVG Version: 6.00 Build 0)  -->
<svg version="1.2" baseProfile="tiny" id="Слой_1"
	 xmlns="http://www.w3.org/2000/svg" xmlns:xlink="http://www.w3.org/1999/xlink" x="0px" y="0px" viewBox="0 0 15 16"
	 xml:space="preserve">
<path fill="#BDD5F6" d="M14.8,14.5l-3.7-3.9c1-1.1,1.5-2.6,1.5-4.1c0-3.5-2.8-6.3-6.3-6.3S0,3.2,0,6.6s2.8,6.3,6.3,6.3
	c1.3,0,2.5-0.4,3.6-1.1l3.7,3.9c0.2,0.2,0.4,0.3,0.6,0.3c0.2,0,0.4-0.1,0.6-0.2C15.1,15.4,15.1,14.9,14.8,14.5z M6.3,2
	c2.6,0,4.7,2.1,4.7,4.7s-2.1,4.7-4.7,4.7S1.6,9.2,1.6,6.6S3.7,2,6.3,2z"/>
</svg>
